<?xml version="1.0" encoding="UTF-8"?>
<svg width="191px" height="35px" viewBox="0 0 191 35" version="1.1" xmlns="http://www.w3.org/2000/svg" xmlns:xlink="http://www.w3.org/1999/xlink">
    <!-- Generator: Sketch 63.1 (92452) - https://sketch.com -->
    <title>logo copy</title>
    <desc>Created with Sketch.</desc>
    <g id="Home" stroke="none" stroke-width="1" fill="none" fill-rule="evenodd">
        <g id="Home-page" transform="translate(-753.000000, -67.000000)">
            <g id="header">
                <g id="middle-row">
                    <g id="logo-copy" transform="translate(753.000000, 67.000000)">
                        <path d="M49.0390625,23 L49.0390625,15.390625 L49.1015625,15.390625 L52.1640625,23 L53.6484375,23 L56.7109375,15.390625 L56.7734375,15.390625 L56.7734375,23 L58.875,23 L58.875,11.7265625 L56.140625,11.7265625 L52.9375,19.8203125 L52.875,19.8203125 L49.671875,11.7265625 L46.9375,11.7265625 L46.9375,23 L49.0390625,23 Z M68.8359375,23.1875 C72.171875,23.1875 74.2734375,20.953125 74.2734375,17.3671875 C74.2734375,13.7734375 72.171875,11.53125 68.8359375,11.53125 C65.4921875,11.53125 63.3984375,13.7734375 63.3984375,17.3671875 C63.3984375,20.953125 65.4921875,23.1875 68.8359375,23.1875 Z M68.8359375,21.21875 C66.984375,21.21875 65.8046875,19.7265625 65.8046875,17.3671875 C65.8046875,15 66.9921875,13.5 68.8359375,13.5 C70.6796875,13.5 71.859375,15 71.859375,17.3671875 C71.859375,19.7265625 70.6796875,21.21875 68.8359375,21.21875 Z M83.09375,23 C86.4765625,23 88.46875,20.8984375 88.46875,17.3203125 C88.46875,13.7421875 86.4765625,11.7265625 83.09375,11.7265625 L78.7890625,11.7265625 L78.7890625,23 L83.09375,23 Z M82.8125,21.046875 L81.1484375,21.046875 L81.1484375,13.671875 L82.8125,13.671875 C84.890625,13.671875 86.0625,14.96875 86.0625,17.328125 C86.0625,19.765625 84.921875,21.046875 82.8125,21.046875 Z M100.460938,23 L100.460938,21.046875 L95.3515625,21.046875 L95.3515625,18.203125 L100.171875,18.203125 L100.171875,16.390625 L95.3515625,16.390625 L95.3515625,13.671875 L100.460938,13.671875 L100.460938,11.7265625 L92.9921875,11.7265625 L92.9921875,23 L100.460938,23 Z M107.523438,23 L107.523438,18.875 L109.414062,18.875 L111.515625,23 L114.1875,23 L111.8125,18.5234375 C113.109375,18.015625 113.859375,16.765625 113.859375,15.3203125 C113.859375,13.09375 112.375,11.7265625 109.78125,11.7265625 L105.164062,11.7265625 L105.164062,23 L107.523438,23 Z M109.554688,17.1640625 L107.523438,17.1640625 L107.523438,13.5703125 L109.53125,13.5703125 C110.703125,13.5703125 111.4375,14.2734375 111.4375,15.3671875 C111.4375,16.484375 110.742188,17.1640625 109.554688,17.1640625 Z M120.664062,23 L120.664062,15.6171875 L120.734375,15.6171875 L126.007812,23 L127.960938,23 L127.960938,11.7265625 L125.703125,11.7265625 L125.703125,19.0703125 L125.640625,19.0703125 L120.375,11.7265625 L118.40625,11.7265625 L118.40625,23 L120.664062,23 Z M143.117188,23.1875 C145.9375,23.1875 147.664062,21.796875 147.664062,19.59375 C147.664062,17.8828125 146.625,16.921875 144.242188,16.4453125 L143.046875,16.203125 C141.71875,15.9375 141.171875,15.5078125 141.171875,14.8125 C141.171875,13.984375 141.953125,13.4375 143.117188,13.4375 C144.304688,13.4375 145.140625,14.015625 145.21875,14.9765625 L147.445312,14.9765625 C147.40625,12.90625 145.75,11.53125 143.117188,11.53125 C140.609375,11.53125 138.8125,12.8984375 138.8125,14.9609375 C138.8125,16.640625 139.914062,17.71875 142.164062,18.1640625 L143.351562,18.3984375 C144.765625,18.6875 145.296875,19.109375 145.296875,19.8515625 C145.296875,20.6796875 144.4375,21.2890625 143.179688,21.2890625 C141.898438,21.2890625 140.945312,20.7265625 140.796875,19.78125 L138.570312,19.78125 C138.640625,21.90625 140.429688,23.1875 143.117188,23.1875 Z M154.460938,23 L154.460938,18.25 L159.539062,18.25 L159.539062,23 L161.898438,23 L161.898438,11.7265625 L159.539062,11.7265625 L159.539062,16.3046875 L154.460938,16.3046875 L154.460938,11.7265625 L152.101562,11.7265625 L152.101562,23 L154.460938,23 Z M171.859375,23.1875 C175.195312,23.1875 177.296875,20.953125 177.296875,17.3671875 C177.296875,13.7734375 175.195312,11.53125 171.859375,11.53125 C168.515625,11.53125 166.421875,13.7734375 166.421875,17.3671875 C166.421875,20.953125 168.515625,23.1875 171.859375,23.1875 Z M171.859375,21.21875 C170.007812,21.21875 168.828125,19.7265625 168.828125,17.3671875 C168.828125,15 170.015625,13.5 171.859375,13.5 C173.703125,13.5 174.882812,15 174.882812,17.3671875 C174.882812,19.7265625 173.703125,21.21875 171.859375,21.21875 Z M184.171875,23 L184.171875,19.4453125 L186.28125,19.4453125 C188.65625,19.4453125 190.304688,17.8984375 190.304688,15.5859375 C190.304688,13.265625 188.710938,11.7265625 186.398438,11.7265625 L181.8125,11.7265625 L181.8125,23 L184.171875,23 Z M185.765625,17.6015625 L184.171875,17.6015625 L184.171875,13.59375 L185.773438,13.59375 C187.125,13.59375 187.90625,14.3125 187.90625,15.59375 C187.90625,16.8828125 187.117188,17.6015625 185.765625,17.6015625 Z" id="MODERNSHOP" fill="#0A0500" fill-rule="nonzero"></path>
                        <circle id="Oval" fill="#0A0500" cx="17.5" cy="17.5" r="17.5"></circle>
                        <polygon id="M" fill="#FFFFFF" fill-rule="nonzero" points="13.4189453 24 13.4189453 15.4394531 13.4892578 15.4394531 16.9345703 24 18.6044922 24 22.0498047 15.4394531 22.1201172 15.4394531 22.1201172 24 24.484375 24 24.484375 11.3173828 21.4082031 11.3173828 17.8046875 20.4228516 17.734375 20.4228516 14.1308594 11.3173828 11.0546875 11.3173828 11.0546875 24"></polygon>
                    </g>
                </g>
            </g>
        </g>
    </g>
</svg>