<?xml version="1.0" encoding="UTF-8"?>
<svg width="80px" height="80px" viewBox="0 0 80 80" version="1.1" xmlns="http://www.w3.org/2000/svg" xmlns:xlink="http://www.w3.org/1999/xlink">
    <!-- Generator: Sketch 63.1 (92452) - https://sketch.com -->
    <title>Combined Shape</title>
    <desc>Created with Sketch.</desc>
    <g id="Home" stroke="none" stroke-width="1" fill="none" fill-rule="evenodd">
        <g id="Home-page" transform="translate(-1188.000000, -510.000000)" fill="#FFFFFF" fill-rule="nonzero">
            <g id="hero" transform="translate(0.000000, 210.000000)">
                <path d="M1228,300 C1250.09139,300 1268,317.908609 1268,340 C1268,362.091386 1250.09139,380 1228,380 C1205.90861,380 1188,362.091386 1188,340 C1188,317.908609 1205.90861,300 1228,300 Z M1221.24375,327.999998 C1220.5625,327.999998 1220.00625,328.562498 1220.00625,329.249998 L1220,329.249998 L1220,350.749997 L1220.00625,350.749997 C1220.00625,351.437497 1220.5625,351.999998 1221.24375,351.999998 C1221.5,351.999998 1221.7125,351.912497 1221.94375,351.787497 L1239.325,341.443748 C1239.7375,341.099998 1240,340.581248 1240,339.999998 C1240,339.418748 1239.7375,338.906248 1239.325,338.556248 L1221.925,328.199998 C1221.7125,328.074998 1221.49375,327.999998 1221.24375,327.999998 Z" id="Combined-Shape"></path>
            </g>
        </g>
    </g>
</svg>